<svg xmlns="http://www.w3.org/2000/svg" viewBox="0 0 200 203" width="200" height="203">
	<defs>
		<clipPath clipPathUnits="userSpaceOnUse" id="cp1">
			<path d="M0 0L200 0L200 203L0 203L0 0Z" />
		</clipPath>
		<linearGradient id="grd1" gradientUnits="userSpaceOnUse"  x1="13.352" y1="128.712" x2="234.596" y2="10.059">
			<stop offset="0" stop-color="#21a3d0"  />
			<stop offset="0.355" stop-color="#e10a7e"  />
			<stop offset="1" stop-color="#91267f"  />
		</linearGradient>
		<linearGradient id="grd2" gradientUnits="userSpaceOnUse"  x1="40.166" y1="178.495" x2="261.217" y2="59.778">
			<stop offset="0" stop-color="#21a3d0"  />
			<stop offset="0.355" stop-color="#e10a7e"  />
			<stop offset="1" stop-color="#91267f"  />
		</linearGradient>
		<linearGradient id="grd3" gradientUnits="userSpaceOnUse"  x1="32.652" y1="164.445" x2="253.612" y2="45.731">
			<stop offset="0" stop-color="#21a3d0"  />
			<stop offset="0.355" stop-color="#e10a7e"  />
			<stop offset="1" stop-color="#91267f"  />
		</linearGradient>
		<linearGradient id="grd4" gradientUnits="userSpaceOnUse"  x1="25.246" y1="150.812" x2="246.344" y2="32.009">
			<stop offset="0" stop-color="#21a3d0"  />
			<stop offset="0.355" stop-color="#e10a7e"  />
			<stop offset="1" stop-color="#91267f"  />
		</linearGradient>
		<linearGradient id="grd5" gradientUnits="userSpaceOnUse"  x1="21.464" y1="143.791" x2="242.602" y2="25.059">
			<stop offset="0" stop-color="#21a3d0"  />
			<stop offset="0.355" stop-color="#e10a7e"  />
			<stop offset="1" stop-color="#91267f"  />
		</linearGradient>
		<linearGradient id="grd6" gradientUnits="userSpaceOnUse"  x1="42.212" y1="182.669" x2="263.223" y2="63.96">
			<stop offset="0" stop-color="#21a3d0"  />
			<stop offset="0.355" stop-color="#e10a7e"  />
			<stop offset="1" stop-color="#91267f"  />
		</linearGradient>
		<linearGradient id="grd7" gradientUnits="userSpaceOnUse"  x1="32.587" y1="164.444" x2="253.712" y2="45.678">
			<stop offset="0" stop-color="#21a3d0"  />
			<stop offset="0.355" stop-color="#e10a7e"  />
			<stop offset="1" stop-color="#91267f"  />
		</linearGradient>
		<linearGradient id="grd8" gradientUnits="userSpaceOnUse"  x1="25.01" y1="150.296" x2="246.07" y2="31.572">
			<stop offset="0" stop-color="#21a3d0"  />
			<stop offset="0.355" stop-color="#e10a7e"  />
			<stop offset="1" stop-color="#91267f"  />
		</linearGradient>
		<linearGradient id="grd9" gradientUnits="userSpaceOnUse"  x1="20.015" y1="141.058" x2="241.139" y2="22.341">
			<stop offset="0" stop-color="#21a3d0"  />
			<stop offset="0.355" stop-color="#e10a7e"  />
			<stop offset="1" stop-color="#91267f"  />
		</linearGradient>
		<linearGradient id="grd10" gradientUnits="userSpaceOnUse"  x1="42.271" y1="182.554" x2="263.471" y2="63.834">
			<stop offset="0" stop-color="#21a3d0"  />
			<stop offset="0.355" stop-color="#e10a7e"  />
			<stop offset="1" stop-color="#91267f"  />
		</linearGradient>
		<linearGradient id="grd11" gradientUnits="userSpaceOnUse"  x1="0.055" y1="103.834" x2="221.136" y2="-14.895">
			<stop offset="0" stop-color="#21a3d0"  />
			<stop offset="0.355" stop-color="#e10a7e"  />
			<stop offset="1" stop-color="#91267f"  />
		</linearGradient>
		<linearGradient id="grd12" gradientUnits="userSpaceOnUse"  x1="70.602" y1="150.443" x2="291.571" y2="31.8">
			<stop offset="0" stop-color="#21a3d0"  />
			<stop offset="0.355" stop-color="#e10a7e"  />
			<stop offset="1" stop-color="#91267f"  />
		</linearGradient>
		<linearGradient id="grd13" gradientUnits="userSpaceOnUse"  x1="100.779" y1="113.05" x2="321.846" y2="-5.656">
			<stop offset="0" stop-color="#21a3d0"  />
			<stop offset="0.355" stop-color="#e10a7e"  />
			<stop offset="1" stop-color="#91267f"  />
		</linearGradient>
		<linearGradient id="grd14" gradientUnits="userSpaceOnUse"  x1="67.987" y1="145.57" x2="288.957" y2="26.927">
			<stop offset="0" stop-color="#21a3d0"  />
			<stop offset="0.355" stop-color="#e10a7e"  />
			<stop offset="1" stop-color="#91267f"  />
		</linearGradient>
		<linearGradient id="grd15" gradientUnits="userSpaceOnUse"  x1="7.752" y1="118.224" x2="228.885" y2="-0.501">
			<stop offset="0" stop-color="#21a3d0"  />
			<stop offset="0.355" stop-color="#e10a7e"  />
			<stop offset="1" stop-color="#91267f"  />
		</linearGradient>
		<linearGradient id="grd16" gradientUnits="userSpaceOnUse"  x1="28.648" y1="157.27" x2="249.885" y2="38.507">
			<stop offset="0" stop-color="#21a3d0"  />
			<stop offset="0.355" stop-color="#e10a7e"  />
			<stop offset="1" stop-color="#91267f"  />
		</linearGradient>
		<linearGradient id="grd17" gradientUnits="userSpaceOnUse"  x1="16.395" y1="134.257" x2="237.472" y2="15.406">
			<stop offset="0" stop-color="#209fda"  />
			<stop offset="0.595" stop-color="#e10a7e"  />
			<stop offset="1" stop-color="#91267f"  />
		</linearGradient>
		<linearGradient id="grd18" gradientUnits="userSpaceOnUse"  x1="17.844" y1="136.947" x2="238.894" y2="18.219">
			<stop offset="0" stop-color="#209fda"  />
			<stop offset="0.595" stop-color="#e10a7e"  />
			<stop offset="1" stop-color="#91267f"  />
		</linearGradient>
		<linearGradient id="grd19" gradientUnits="userSpaceOnUse"  x1="18.829" y1="138.818" x2="240.061" y2="20.102">
			<stop offset="0" stop-color="#209fda"  />
			<stop offset="0.595" stop-color="#e10a7e"  />
			<stop offset="1" stop-color="#91267f"  />
		</linearGradient>
		<linearGradient id="grd20" gradientUnits="userSpaceOnUse"  x1="21.365" y1="143.507" x2="242.403" y2="24.779">
			<stop offset="0" stop-color="#209fda"  />
			<stop offset="0.595" stop-color="#e10a7e"  />
			<stop offset="1" stop-color="#91267f"  />
		</linearGradient>
		<linearGradient id="grd21" gradientUnits="userSpaceOnUse"  x1="22.776" y1="146.151" x2="243.846" y2="27.345">
			<stop offset="0" stop-color="#209fda"  />
			<stop offset="0.595" stop-color="#e10a7e"  />
			<stop offset="1" stop-color="#91267f"  />
		</linearGradient>
		<linearGradient id="grd22" gradientUnits="userSpaceOnUse"  x1="25.202" y1="150.663" x2="246.283" y2="31.935">
			<stop offset="0" stop-color="#209fda"  />
			<stop offset="0.595" stop-color="#e10a7e"  />
			<stop offset="1" stop-color="#91267f"  />
		</linearGradient>
		<linearGradient id="grd23" gradientUnits="userSpaceOnUse"  x1="21.726" y1="144.182" x2="242.798" y2="25.454">
			<stop offset="0" stop-color="#209fda"  />
			<stop offset="0.595" stop-color="#e10a7e"  />
			<stop offset="1" stop-color="#91267f"  />
		</linearGradient>
		<linearGradient id="grd24" gradientUnits="userSpaceOnUse"  x1="24.27" y1="148.924" x2="245.346" y2="30.073">
			<stop offset="0" stop-color="#209fda"  />
			<stop offset="0.595" stop-color="#e10a7e"  />
			<stop offset="1" stop-color="#91267f"  />
		</linearGradient>
		<linearGradient id="grd25" gradientUnits="userSpaceOnUse"  x1="26.288" y1="152.667" x2="247.364" y2="33.948">
			<stop offset="0" stop-color="#209fda"  />
			<stop offset="0.595" stop-color="#e10a7e"  />
			<stop offset="1" stop-color="#91267f"  />
		</linearGradient>
		<linearGradient id="grd26" gradientUnits="userSpaceOnUse"  x1="28.5" y1="156.772" x2="249.473" y2="38.045">
			<stop offset="0" stop-color="#209fda"  />
			<stop offset="0.595" stop-color="#e10a7e"  />
			<stop offset="1" stop-color="#91267f"  />
		</linearGradient>
		<linearGradient id="grd27" gradientUnits="userSpaceOnUse"  x1="30.238" y1="160.027" x2="251.297" y2="41.311">
			<stop offset="0" stop-color="#209fda"  />
			<stop offset="0.595" stop-color="#e10a7e"  />
			<stop offset="1" stop-color="#91267f"  />
		</linearGradient>
	</defs>
	<style>
		tspan { white-space:pre }
		.shp0 { fill: #fafafa } 
		.shp1 { fill: url(#grd1) } 
		.shp2 { fill: url(#grd2) } 
		.shp3 { fill: url(#grd3) } 
		.shp4 { fill: url(#grd4) } 
		.shp5 { fill: url(#grd5) } 
		.shp6 { fill: url(#grd6) } 
		.shp7 { fill: url(#grd7) } 
		.shp8 { fill: url(#grd8) } 
		.shp9 { fill: url(#grd9) } 
		.shp10 { fill: url(#grd10) } 
		.shp11 { fill: url(#grd11) } 
		.shp12 { fill: url(#grd12) } 
		.shp13 { fill: url(#grd13) } 
		.shp14 { fill: url(#grd14) } 
		.shp15 { fill: url(#grd15) } 
		.shp16 { fill: url(#grd16) } 
		.shp17 { fill: url(#grd17) } 
		.shp18 { fill: url(#grd18) } 
		.shp19 { fill: url(#grd19) } 
		.shp20 { fill: url(#grd20) } 
		.shp21 { fill: url(#grd21) } 
		.shp22 { fill: url(#grd22) } 
		.shp23 { fill: url(#grd23) } 
		.shp24 { fill: url(#grd24) } 
		.shp25 { fill: url(#grd25) } 
		.shp26 { fill: url(#grd26) } 
		.shp27 { fill: url(#grd27) } 
	</style>
	<g id="Clip-Path: App_Logo" clip-path="url(#cp1)">
		<g id="App_Logo">
			<g id="Group_33">
				<g id="Layer">
					<path id="Rectangle_135-2" class="shp0" d="M17 1L184 1C192.85 1 200 8.15 200 17L200 187C200 195.85 192.85 203 184 203L17 203C8.15 203 1 195.85 1 187L1 17C1 8.15 8.15 1 17 1Z" />
				</g>
				<g id="Group_16">
					<g id="Group_1">
						<path id="Path_1" fill-rule="evenodd" class="shp1" d="M133.43 80.38C133.62 79.93 133.82 79.49 134.03 79.04C134.24 78.6 134.45 78.16 134.67 77.72C134.89 77.29 135.11 76.85 135.34 76.42C135.57 75.99 135.81 75.56 136.06 75.14C139.56 68.61 148.44 64.14 148.44 62.54C148.4 60.91 140.78 62.22 137.93 63.14C137.76 63.19 137.58 63.24 137.41 63.3C137.24 63.36 137.08 63.43 136.91 63.5C136.75 63.58 136.59 63.66 136.43 63.76C136.28 63.85 136.13 63.95 135.98 64.05C135.92 64.13 135.84 64.2 135.75 64.25C135.66 64.3 135.56 64.33 135.46 64.34C135.36 64.36 135.26 64.36 135.16 64.33C135.06 64.31 134.97 64.27 134.88 64.22C134.8 64.16 134.73 64.08 134.68 64C134.62 63.92 134.58 63.82 134.55 63.72C134.53 63.63 134.52 63.52 134.53 63.42C134.54 63.32 134.56 63.22 134.6 63.13C135.16 61.32 135.94 59.68 138.02 59.15C138.96 58.88 139.92 58.66 140.89 58.49C141.85 58.31 142.83 58.18 143.8 58.09C144.78 58 145.76 57.96 146.74 57.96C147.73 57.96 148.71 58 149.69 58.09C150.1 58.1 150.51 58.21 150.87 58.43C151.23 58.64 151.52 58.94 151.72 59.31C151.93 59.67 152.03 60.08 152.02 60.5C152.02 60.92 151.9 61.32 151.69 61.68C150.65 63.99 148.75 65.53 146.79 67.03C141.46 71.12 136.98 75.91 134.63 82.35C133.86 84.48 133.47 86.75 132.86 88.95C132.68 89.59 132.68 90.66 131.74 90.52C130.93 90.39 131.18 89.38 131.14 88.75C130.95 85.94 130.9 83.14 130.44 80.36C130.4 80.11 130.34 79.85 130.28 79.6C130.22 79.35 130.16 79.09 130.09 78.84C130.01 78.59 129.94 78.35 129.85 78.1C129.77 77.85 129.68 77.61 129.58 77.36C129.18 76.27 128.6 75.99 127.55 76.48C127.31 76.58 127.08 76.69 126.85 76.81C126.62 76.94 126.4 77.07 126.18 77.21C125.96 77.35 125.75 77.51 125.54 77.67C125.34 77.83 125.14 77.99 124.95 78.17C123.79 79.3 122.62 80.4 121.41 81.48C120.21 82.55 118.98 83.59 117.73 84.61C116.47 85.63 115.2 86.62 113.9 87.57C112.6 88.53 111.28 89.46 109.94 90.35C101.72 95.84 93.01 100.32 83.29 102.5C81.79 102.87 80.29 103.2 78.78 103.5C77.26 103.8 75.74 104.07 74.22 104.3C72.7 104.53 71.17 104.73 69.63 104.9C68.1 105.06 66.56 105.19 65.03 105.29C63.04 105.37 61.04 105.39 59.05 105.34C57.06 105.29 55.07 105.17 53.09 105C51.1 104.82 49.13 104.58 47.16 104.28C45.19 103.97 43.23 103.61 41.29 103.18C37.84 102.44 34.42 101.62 31.03 100.63C30.15 100.38 29.69 100.62 29.43 101.5C28.78 103.65 28.09 105.79 27.4 107.92C27.26 108.36 27.17 108.97 26.51 108.84C25.84 108.72 25.95 108.13 25.99 107.67C26.09 106.61 26.23 105.54 26.4 104.49C26.57 103.43 26.79 102.38 27.03 101.33C27.28 100.29 27.57 99.26 27.89 98.24C28.21 97.21 28.57 96.2 28.96 95.21C28.99 95.07 29.05 94.94 29.14 94.83C29.22 94.72 29.34 94.62 29.46 94.56C29.59 94.5 29.73 94.46 29.87 94.46C30.01 94.45 30.15 94.48 30.28 94.53C35.1 96.04 40.06 96.98 44.99 98.06C46.38 98.34 47.78 98.59 49.19 98.8C50.59 99.01 52.01 99.18 53.42 99.32C54.83 99.46 56.25 99.56 57.67 99.63C59.09 99.69 60.51 99.72 61.93 99.71C62.86 99.72 63.79 99.72 64.72 99.69C65.65 99.66 66.57 99.62 67.5 99.55C68.43 99.49 69.35 99.41 70.28 99.31C71.2 99.2 72.12 99.08 73.04 98.95C73.92 98.81 74.79 98.66 75.67 98.49C76.54 98.32 77.41 98.14 78.28 97.95C79.15 97.75 80.01 97.55 80.87 97.32C81.73 97.1 82.59 96.87 83.44 96.61C84.8 96.23 86.15 95.82 87.49 95.39C88.84 94.96 90.17 94.51 91.5 94.03C92.83 93.56 94.15 93.07 95.47 92.55C96.78 92.04 98.09 91.5 99.38 90.94C100.79 90.35 102.19 89.72 103.56 89.04C104.94 88.37 106.3 87.66 107.63 86.91C108.96 86.15 110.28 85.36 111.56 84.54C112.85 83.71 114.12 82.84 115.36 81.94C119.13 79.16 122.92 76.41 126.41 73.26C126.54 73.14 126.66 73.03 126.8 72.93C126.93 72.82 127.07 72.72 127.21 72.63C127.35 72.53 127.5 72.44 127.65 72.36C127.8 72.28 127.95 72.2 128.11 72.13C128.55 71.88 129.05 71.75 129.55 71.75C130.06 71.74 130.56 71.87 131.01 72.11C131.45 72.35 131.83 72.7 132.11 73.12C132.38 73.55 132.55 74.04 132.58 74.54C132.83 76.17 132.26 81.5 133.43 80.38Z" />
						<path id="Path_2" fill-rule="evenodd" class="shp2" d="M165.56 110.54C165.41 111.57 165.21 112.58 164.97 113.58C164.72 114.58 164.42 115.57 164.07 116.54C163.72 117.51 163.33 118.47 162.88 119.4C162.44 120.33 161.95 121.24 161.42 122.13C161.13 122.57 160.82 122.99 160.47 123.39C160.13 123.78 159.76 124.15 159.36 124.5C158.96 124.84 158.53 125.15 158.09 125.42C157.64 125.7 157.18 125.95 156.69 126.16C152.9 127.81 151.26 130.79 150.57 134.62C150.49 135.17 150.39 135.71 150.27 136.26C150.15 136.8 150.01 137.33 149.84 137.86C149.68 138.39 149.5 138.92 149.29 139.43C149.09 139.95 148.86 140.46 148.62 140.95C148.4 141.37 148.15 141.76 147.86 142.13C147.57 142.49 147.25 142.83 146.89 143.14C146.54 143.44 146.16 143.71 145.75 143.95C145.35 144.18 144.92 144.37 144.48 144.52C140.81 145.85 136.94 146.24 133.1 146.74C132.81 146.77 132.42 146.86 132.28 146.52C132.1 146.09 132.5 145.89 132.8 145.75C133.54 145.4 134.32 145.11 135.08 144.78C140.19 142.58 144.2 138.91 147.94 134.92C149.28 133.49 149.29 131.47 149.84 129.7C149.95 129.29 150.07 128.88 150.2 128.48C150.33 128.08 150.47 127.68 150.63 127.28C150.78 126.88 150.94 126.49 151.12 126.11C151.29 125.72 151.48 125.34 151.67 124.96C151.92 124.53 152.21 124.11 152.52 123.72C152.83 123.33 153.17 122.96 153.54 122.62C153.91 122.28 154.3 121.97 154.71 121.69C155.12 121.4 155.56 121.15 156.01 120.93C156.38 120.74 156.75 120.53 157.12 120.31C157.48 120.1 157.85 119.88 158.2 119.64C158.56 119.41 158.91 119.17 159.25 118.93C159.6 118.68 159.94 118.43 160.27 118.17C160.51 118 160.73 117.8 160.93 117.58C161.12 117.36 161.29 117.12 161.43 116.87C161.56 116.61 161.67 116.34 161.75 116.05C161.82 115.77 161.87 115.48 161.87 115.19C161.99 113.31 161.86 111.45 161.85 109.58C161.82 105.39 161.86 101.21 161.73 97.03C161.64 94.16 163.03 91.95 164.54 89.76C164.99 89.1 165.42 89.18 165.74 89.97C166.11 90.85 165.81 108.97 165.56 110.54Z" />
						<path id="Path_3" fill-rule="evenodd" class="shp3" d="M136.34 117.45C136.44 117.9 136.63 118.31 136.91 118.67C137.19 119.02 137.54 119.31 137.94 119.52C138.34 119.72 138.79 119.84 139.24 119.85C139.69 119.86 140.14 119.78 140.55 119.6C140.86 119.48 141.14 119.34 141.42 119.17C141.69 119 141.94 118.8 142.17 118.58C142.41 118.36 142.61 118.11 142.8 117.85C142.98 117.58 143.13 117.3 143.25 117C143.33 116.77 143.41 116.53 143.5 116.29C143.58 116.06 143.67 115.83 143.77 115.6C143.87 115.37 143.98 115.14 144.09 114.91C144.2 114.69 144.31 114.47 144.43 114.25C144.64 113.94 144.86 113.64 145.3 113.76C145.39 113.78 145.47 113.82 145.55 113.88C145.62 113.93 145.69 114 145.74 114.07C145.78 114.15 145.82 114.24 145.83 114.33C145.85 114.42 145.85 114.51 145.83 114.6C144.89 118.02 144.39 121.76 141.51 124.25C141.19 124.55 140.83 124.8 140.43 125C140.04 125.19 139.62 125.33 139.18 125.4C138.75 125.47 138.3 125.48 137.87 125.42C137.43 125.36 137 125.23 136.6 125.05C136.17 124.85 135.77 124.6 135.41 124.29C135.05 123.99 134.72 123.64 134.45 123.26C134.18 122.87 133.96 122.45 133.8 122.01C133.64 121.56 133.54 121.1 133.5 120.63C133.28 119.15 134.01 103.3 133.92 96.85C133.93 96.36 133.97 95.87 134.04 95.38C134.11 94.9 134.21 94.42 134.33 93.94C134.45 93.47 134.59 93 134.76 92.54C134.94 92.09 135.13 91.64 135.35 91.2C135.57 90.71 135.91 90.37 136.45 90.48C137.04 90.59 136.96 91.12 136.95 91.55C136.94 91.95 136.11 115.92 136.34 117.45Z" />
						<path id="Path_4" fill-rule="evenodd" class="shp4" d="M174.69 71.05C174.54 73.62 175.02 81.7 164.34 85.68C163.99 85.79 163.64 85.89 163.29 85.98C162.93 86.08 162.58 86.17 162.23 86.26C161.87 86.34 161.51 86.42 161.16 86.49C160.8 86.57 160.44 86.63 160.08 86.7C159.69 86.78 159.19 86.95 158.98 86.44C158.73 85.86 159.23 85.7 159.63 85.44C162.97 83.25 166.58 81.45 169.59 78.76C170.59 77.88 171.66 77.04 171.57 75.48C171.51 74.33 171.02 73.89 169.89 74.08C165.53 74.81 164.39 73.6 165.3 69.23C165.34 68.98 165.4 68.74 165.45 68.5C165.51 68.25 165.58 68.01 165.65 67.77C165.72 67.53 165.79 67.29 165.87 67.05C165.95 66.82 166.04 66.58 166.13 66.35C166.28 65.86 166.55 65.4 166.91 65.03C167.27 64.66 167.71 64.38 168.2 64.21C168.69 64.05 169.22 64 169.73 64.08C170.24 64.16 170.73 64.36 171.15 64.66C171.7 64.98 172.21 65.37 172.66 65.83C173.11 66.28 173.5 66.8 173.81 67.36C174.12 67.92 174.35 68.52 174.5 69.14C174.65 69.77 174.72 70.41 174.69 71.05L174.69 71.05Z" />
						<path id="Path_5" fill-rule="evenodd" class="shp5" d="M158.72 80.35C158.44 81.76 157.99 83.14 157.59 84.52C157.46 84.99 157.22 85.54 156.63 85.38C156.13 85.24 156.13 64.66 156.28 60.18C156.35 58.07 157.92 56.64 159.42 55.38C159.96 54.92 159.94 55.8 159.94 56.16C159.97 58.52 159.83 74.7 158.72 80.35Z" />
						<path id="Path_6" fill-rule="evenodd" class="shp6" d="M173.41 129.05C173.16 130.46 172.74 131.85 172.37 133.24C172.25 133.72 172.02 134.27 171.43 134.12C170.93 133.99 170.27 102.77 170.32 98.29C170.35 96.18 171.89 94.72 173.36 93.43C173.89 92.96 173.89 93.84 173.9 94.19C173.97 96.56 174.4 123.38 173.41 129.05Z" />
						<path id="Path_7" fill-rule="evenodd" class="shp7" d="M131.35 101.28C131.63 101.74 131.82 102.24 131.94 102.76C132.05 103.28 132.08 103.81 132.02 104.34C131.97 104.87 131.83 105.39 131.61 105.88C130.05 109.6 128.04 113.05 124.41 115.23C120.83 117.39 117.07 118.98 112.8 118.93C111.84 118.92 111.68 119.57 111.58 120.26C111.26 122.35 111.06 124.47 110.67 126.55C109.53 132.63 107.29 138.25 103.07 142.89C102.06 144.03 100.86 144.99 99.52 145.72C98.18 146.45 96.72 146.94 95.21 147.18C93.7 147.41 92.16 147.37 90.66 147.07C89.17 146.78 87.73 146.22 86.43 145.43C83.05 143.49 80.85 139.28 81.03 133.17C81.2 130.02 82.96 125.52 84.95 121.09C85.33 120.25 85.8 119.45 86.24 118.65C86.4 118.37 86.58 118.03 86.97 118.17C87.06 118.21 87.14 118.25 87.2 118.32C87.27 118.38 87.32 118.45 87.36 118.54C87.4 118.62 87.42 118.71 87.43 118.8C87.43 118.89 87.42 118.98 87.39 119.07C87.37 119.16 87.34 119.26 87.31 119.36C87.29 119.45 87.26 119.55 87.22 119.64C87.19 119.74 87.16 119.83 87.12 119.92C87.08 120.02 87.05 120.11 87 120.2C86.78 120.68 86.56 121.17 86.35 121.65C86.14 122.14 85.94 122.63 85.74 123.12C85.55 123.62 85.36 124.11 85.17 124.61C84.99 125.11 84.82 125.61 84.65 126.11C84.46 126.68 84.3 127.26 84.18 127.85C84.06 128.44 83.98 129.03 83.92 129.63C83.87 130.23 83.85 130.83 83.86 131.43C83.88 132.03 83.93 132.62 84.01 133.22C84.74 137.61 87.76 139.77 91.67 140.9C95.36 141.97 98.67 140.72 101.59 138.55C105.99 135.27 108.12 130.68 108.67 125.29C108.92 122.83 109.36 116.52 109.54 115.87C110.24 113.21 110.25 113.17 112.94 113.34C113.2 113.39 113.48 113.39 113.75 113.35C114.02 113.3 114.27 113.21 114.51 113.08C114.75 112.95 114.96 112.77 115.14 112.57C115.32 112.36 115.46 112.12 115.55 111.87C117.13 108.72 120.39 101.86 123.89 99.98C125.99 98.86 128.67 98.74 130.33 100.06C130.74 100.41 131.08 100.82 131.35 101.28ZM127.77 108.1C127.99 107.94 128.18 107.74 128.34 107.52C128.49 107.3 128.61 107.05 128.68 106.79C128.76 106.53 128.79 106.26 128.77 105.99C128.76 105.71 128.7 105.45 128.59 105.2C128.49 104.94 128.35 104.7 128.19 104.48C128.02 104.26 127.82 104.06 127.6 103.89C127.38 103.72 127.14 103.59 126.88 103.48C126.62 103.38 126.35 103.31 126.08 103.28C125.71 103.26 125.33 103.27 124.96 103.32C124.59 103.38 124.23 103.47 123.88 103.6C123.53 103.73 123.19 103.9 122.88 104.1C122.56 104.3 122.27 104.53 122.01 104.8C121.54 105.33 121.1 105.89 120.68 106.46C120.27 107.03 119.88 107.63 119.52 108.24C119.16 108.84 118.82 109.47 118.52 110.11C118.21 110.75 117.93 111.4 117.69 112.06C117.4 112.72 117.64 113.01 118.31 112.81C121.74 111.8 125.09 110.61 127.77 108.1Z" />
						<path id="Path_8" class="shp8" d="M113.11 106.96C113.06 107.03 113 107.09 112.93 107.14C112.85 107.19 112.77 107.22 112.68 107.23C112.6 107.25 112.51 107.25 112.42 107.23C112.34 107.21 112.26 107.17 112.19 107.12L108.63 104.63C108.56 104.58 108.5 104.52 108.46 104.44C108.41 104.37 108.38 104.29 108.36 104.2C108.35 104.12 108.35 104.03 108.37 103.94C108.39 103.86 108.42 103.78 108.47 103.7L110.96 100.15C111.02 100.08 111.08 100.02 111.15 99.97C111.23 99.93 111.31 99.9 111.39 99.88C111.48 99.87 111.57 99.87 111.65 99.89C111.74 99.91 111.82 99.94 111.89 99.99L115.44 102.48C115.51 102.53 115.58 102.6 115.62 102.67C115.67 102.74 115.7 102.83 115.72 102.91C115.73 103 115.73 103.09 115.71 103.17C115.69 103.26 115.66 103.34 115.6 103.41L113.11 106.96Z" />
						<path id="Path_9" class="shp9" d="M151.41 74.5C151.36 74.57 151.29 74.63 151.22 74.68C151.15 74.72 151.06 74.75 150.98 74.77C150.89 74.78 150.8 74.78 150.72 74.76C150.63 74.74 150.55 74.71 150.48 74.66L146.93 72.17C146.86 72.12 146.8 72.05 146.75 71.98C146.7 71.91 146.67 71.82 146.66 71.74C146.64 71.65 146.64 71.56 146.66 71.48C146.68 71.39 146.72 71.31 146.77 71.24L149.26 67.69C149.31 67.62 149.37 67.56 149.45 67.51C149.52 67.46 149.6 67.43 149.69 67.42C149.78 67.4 149.86 67.4 149.95 67.42C150.03 67.44 150.11 67.48 150.19 67.53L153.74 70.02C153.81 70.07 153.87 70.13 153.92 70.21C153.97 70.28 154 70.36 154.01 70.45C154.03 70.53 154.03 70.62 154.01 70.71C153.99 70.79 153.95 70.87 153.9 70.94L151.41 74.5Z" />
						<path id="Path_10" class="shp10" d="M146.5 128.62L142.94 126.12C142.87 126.07 142.79 126.04 142.71 126.02C142.62 126 142.53 126 142.45 126.01C142.36 126.03 142.28 126.06 142.21 126.11C142.13 126.15 142.07 126.22 142.02 126.29L139.58 129.76L136.08 127.31C136.01 127.26 135.93 127.22 135.85 127.2C135.76 127.18 135.67 127.18 135.59 127.2C135.5 127.21 135.42 127.24 135.35 127.29C135.27 127.34 135.21 127.4 135.16 127.47L132.67 131.02C132.62 131.09 132.58 131.17 132.56 131.26C132.54 131.34 132.54 131.43 132.56 131.52C132.57 131.6 132.6 131.69 132.65 131.76C132.7 131.83 132.76 131.9 132.83 131.95L136.38 134.44C136.45 134.49 136.53 134.52 136.62 134.54C136.7 134.56 136.79 134.56 136.88 134.55C136.96 134.53 137.04 134.5 137.12 134.46C137.19 134.41 137.26 134.35 137.31 134.28L139.74 130.81L143.24 133.26C143.31 133.31 143.39 133.34 143.48 133.36C143.56 133.38 143.65 133.38 143.74 133.37C143.82 133.35 143.91 133.32 143.98 133.27C144.05 133.23 144.12 133.17 144.17 133.1L146.66 129.55C146.71 129.48 146.75 129.39 146.77 129.31C146.79 129.22 146.79 129.13 146.77 129.05C146.76 128.96 146.73 128.88 146.68 128.8C146.63 128.73 146.57 128.67 146.5 128.62L146.5 128.62Z" />
						<path id="Path_11" class="shp11" d="M31.46 79.69L28.42 82.77C28.36 82.84 28.31 82.91 28.27 82.99C28.24 83.07 28.22 83.16 28.23 83.25C28.23 83.33 28.24 83.42 28.28 83.5C28.31 83.58 28.36 83.65 28.42 83.71L31.44 86.69L28.44 89.73C28.38 89.79 28.33 89.87 28.3 89.95C28.27 90.03 28.25 90.11 28.25 90.2C28.25 90.29 28.27 90.38 28.3 90.46C28.34 90.54 28.38 90.61 28.45 90.67L31.53 93.72C31.6 93.78 31.67 93.83 31.75 93.86C31.83 93.89 31.92 93.91 32.01 93.91C32.09 93.91 32.18 93.89 32.26 93.86C32.34 93.82 32.41 93.78 32.47 93.71L35.52 90.62C35.58 90.56 35.63 90.49 35.67 90.41C35.7 90.33 35.72 90.24 35.71 90.15C35.71 90.07 35.7 89.98 35.66 89.9C35.63 89.82 35.58 89.75 35.52 89.68L32.5 86.71L35.5 83.67C35.56 83.61 35.61 83.53 35.64 83.45C35.67 83.37 35.69 83.28 35.69 83.2C35.69 83.11 35.67 83.02 35.64 82.94C35.6 82.86 35.56 82.79 35.49 82.73L32.41 79.68C32.34 79.62 32.27 79.57 32.19 79.54C32.11 79.5 32.02 79.49 31.93 79.49C31.85 79.49 31.76 79.51 31.68 79.54C31.6 79.57 31.53 79.62 31.46 79.69Z" />
						<path id="Path_12" class="shp12" d="M148.78 105.35C148.78 105.45 148.78 105.54 148.77 105.63C148.77 105.72 148.76 105.81 148.75 105.91C148.75 106 148.74 106.09 148.72 106.18C148.71 106.27 148.69 106.36 148.68 106.45C147.58 106.94 141.35 110.01 140.24 110.55C140.24 110.54 140.24 110.52 140.23 110.5C140.23 110.48 140.23 110.46 140.23 110.45C140.23 110.43 140.23 110.41 140.23 110.39C140.24 110.38 140.24 110.36 140.24 110.34C140.28 110.04 140.32 109.74 140.36 109.44C141.04 109.06 141.73 108.69 142.42 108.33C143.12 107.97 143.81 107.62 144.51 107.28C145.22 106.94 145.92 106.61 146.63 106.29C147.34 105.97 148.06 105.66 148.78 105.35Z" />
						<path id="Path_13" class="shp13" d="M145.69 77.48C145.71 77.57 145.72 77.66 145.73 77.76C145.75 77.85 145.76 77.94 145.77 78.03C145.77 78.12 145.78 78.21 145.78 78.31C145.79 78.4 145.79 78.49 145.79 78.58C144.79 79.26 139.23 83.42 138.24 84.16C138.23 84.14 138.23 84.12 138.23 84.1C138.22 84.09 138.22 84.07 138.22 84.05C138.21 84.03 138.21 84.02 138.21 84C138.2 83.98 138.2 83.96 138.2 83.94C138.18 83.64 138.17 83.34 138.16 83.03C138.76 82.54 139.37 82.05 139.98 81.57C140.6 81.09 141.22 80.62 141.85 80.15C142.47 79.69 143.11 79.24 143.75 78.79C144.39 78.35 145.04 77.91 145.69 77.48L145.69 77.48Z" />
						<path id="Path_14" class="shp14" d="M153.89 94.67C153.89 94.76 153.89 94.85 153.88 94.94C153.88 95.04 153.87 95.13 153.86 95.22C153.85 95.31 153.84 95.4 153.83 95.49C153.82 95.59 153.8 95.68 153.79 95.77C152.69 96.25 146.46 99.32 145.35 99.87C145.35 99.85 145.34 99.83 145.34 99.81C145.34 99.8 145.34 99.78 145.34 99.76C145.34 99.74 145.34 99.72 145.34 99.71C145.34 99.69 145.35 99.67 145.35 99.65C145.39 99.35 145.43 99.05 145.47 98.75C146.15 98.37 146.84 98 147.53 97.64C148.22 97.28 148.92 96.93 149.62 96.59C150.32 96.25 151.03 95.92 151.74 95.6C152.45 95.28 153.17 94.97 153.89 94.67L153.89 94.67Z" />
						<path id="Path_15" class="shp15" d="M113.67 64.7C113.64 64.94 113.59 65.17 113.53 65.4C113.47 65.63 113.39 65.85 113.3 66.08C113.21 66.3 113.11 66.51 113 66.72C112.88 66.93 112.75 67.13 112.61 67.32C112.55 67.38 112.49 67.43 112.42 67.48C112.35 67.53 112.28 67.58 112.2 67.62C112.13 67.66 112.05 67.7 111.97 67.73C111.89 67.76 111.81 67.79 111.73 67.81C109.71 68.57 90.36 75.73 88.34 76.48C80.52 79.38 72.67 82.22 64.93 85.35C63.19 86.05 61.48 86.85 59.76 87.63C59.31 87.84 58.88 88.11 58.45 88.36C58.31 88.43 58.18 88.52 58.05 88.6C56.96 89.35 56.99 89.73 58.22 90.32C58.7 90.55 59.21 90.74 59.71 90.94C60 91.05 60.28 91.17 60.58 91.26C60.67 91.28 60.76 91.32 60.84 91.37C60.93 91.42 61 91.49 61.06 91.56C61.11 91.64 61.16 91.73 61.19 91.82C61.22 91.91 61.23 92.01 61.23 92.11C61.24 92.65 61.25 93.19 61.23 93.73C61.21 94.13 61 94.32 60.64 94.26C60.35 94.23 60.07 94.18 59.78 94.12C59.5 94.06 59.22 93.98 58.95 93.9C58.67 93.81 58.4 93.71 58.14 93.6C57.87 93.48 57.61 93.36 57.36 93.22C57.29 93.18 57.23 93.14 57.16 93.1C57.1 93.06 57.03 93.01 56.97 92.97C56.91 92.92 56.85 92.88 56.79 92.83C56.73 92.78 56.67 92.73 56.62 92.67C56.48 92.55 56.36 92.41 56.25 92.26C56.15 92.11 56.07 91.94 56.01 91.77C55.94 91.6 55.91 91.42 55.89 91.23C55.88 91.05 55.89 90.86 55.92 90.68C55.93 90.59 55.95 90.49 55.97 90.4C55.99 90.3 56.01 90.21 56.04 90.12C56.06 90.02 56.09 89.93 56.12 89.84C56.15 89.75 56.18 89.66 56.22 89.57C56.34 89.24 56.49 88.92 56.64 88.61C56.79 88.3 56.96 88 57.14 87.7C57.33 87.4 57.52 87.12 57.73 86.84C57.93 86.56 58.15 86.29 58.38 86.03C58.54 85.84 58.7 85.67 58.88 85.5C59.06 85.34 59.24 85.19 59.44 85.05C59.64 84.91 59.84 84.78 60.05 84.67C60.26 84.55 60.48 84.45 60.71 84.36C64.26 83 67.79 81.56 71.36 80.24C79.26 77.31 104.5 68.02 112.41 65.13C112.78 64.99 113.14 64.88 113.67 64.7Z" />
						<path id="Path_16" class="shp16" d="M148.06 91.64C148.07 91.56 148.08 91.48 148.09 91.4C148.11 91.32 148.12 91.23 148.14 91.15C148.16 91.07 148.17 90.99 148.19 90.91C148.21 90.83 148.23 90.75 148.25 90.67C148.3 90.66 148.35 90.65 148.4 90.65C148.45 90.66 148.49 90.67 148.54 90.69C148.58 90.71 148.62 90.73 148.66 90.76C148.7 90.8 148.73 90.83 148.75 90.87C148.78 90.91 148.81 90.95 148.83 90.99C148.86 91.03 148.88 91.07 148.9 91.11C148.92 91.16 148.94 91.2 148.96 91.24C148.98 91.29 149 91.33 149.01 91.37C149.17 91.83 149.3 92.28 149.43 92.74C149.45 92.83 149.48 92.92 149.52 93C149.55 93.08 149.59 93.17 149.64 93.24C149.69 93.32 149.74 93.4 149.79 93.47C149.85 93.54 149.91 93.61 149.97 93.67C150.01 93.72 150.06 93.76 150.11 93.79C150.16 93.83 150.21 93.86 150.27 93.88C150.33 93.9 150.39 93.92 150.45 93.93C150.51 93.94 150.57 93.94 150.63 93.94C150.69 93.94 150.74 93.93 150.8 93.91C150.85 93.9 150.9 93.87 150.94 93.84C150.99 93.81 151.03 93.77 151.06 93.72C151.09 93.68 151.12 93.63 151.14 93.57C151.07 93.48 151 93.39 150.93 93.3C150.71 93.05 150.5 92.8 150.27 92.55C150.17 92.44 150.08 92.32 150.01 92.19C149.93 92.06 149.88 91.92 149.84 91.78C149.8 91.64 149.77 91.49 149.77 91.34C149.76 91.19 149.78 91.04 149.81 90.9C149.82 90.83 149.83 90.76 149.84 90.69C149.86 90.62 149.87 90.55 149.89 90.48C149.92 90.41 149.94 90.35 149.97 90.28C150 90.22 150.03 90.15 150.06 90.09C150.18 90.09 150.2 90.17 150.2 90.24C150.22 90.37 150.25 90.51 150.29 90.64C150.33 90.77 150.38 90.9 150.44 91.02C150.49 91.15 150.56 91.27 150.64 91.38C150.72 91.5 150.8 91.6 150.9 91.7C151 91.83 151.1 91.95 151.21 92.07C151.31 92.19 151.4 92.32 151.48 92.46C151.55 92.6 151.61 92.75 151.66 92.9C151.71 93.06 151.74 93.21 151.76 93.37C151.78 93.53 151.78 93.69 151.76 93.85C151.76 93.94 151.75 94.04 151.72 94.13C151.7 94.22 151.67 94.31 151.63 94.39C151.59 94.48 151.54 94.56 151.49 94.64C151.43 94.71 151.37 94.78 151.3 94.85C151.21 94.94 151.1 95.02 150.99 95.08C150.87 95.14 150.74 95.17 150.61 95.18C150.48 95.19 150.35 95.18 150.22 95.15C150.1 95.11 149.98 95.06 149.88 94.98C149.84 94.95 149.8 94.92 149.77 94.89C149.73 94.85 149.7 94.82 149.67 94.79C149.63 94.76 149.6 94.72 149.57 94.69C149.54 94.66 149.51 94.62 149.48 94.59C149.43 94.54 149.38 94.5 149.3 94.43C149.26 94.61 149.23 94.74 149.19 94.88C149.17 94.97 149.14 95.05 149.11 95.13C149.08 95.21 149.04 95.29 149 95.37C148.95 95.44 148.91 95.52 148.85 95.59C148.8 95.66 148.74 95.72 148.68 95.78C148.57 95.89 148.44 95.98 148.3 96.04C148.16 96.1 148.01 96.13 147.86 96.13C147.71 96.13 147.55 96.1 147.41 96.04C147.27 95.98 147.15 95.89 147.04 95.78C146.98 95.73 146.92 95.66 146.87 95.6C146.82 95.53 146.77 95.46 146.73 95.39C146.7 95.31 146.66 95.24 146.64 95.16C146.61 95.08 146.59 95 146.58 94.91C146.52 94.41 146.47 93.91 146.41 93.4C146.38 93.14 146.38 92.88 146.33 92.63C146.32 92.58 146.31 92.54 146.29 92.49C146.28 92.45 146.26 92.4 146.25 92.36C146.23 92.32 146.21 92.27 146.19 92.23C146.17 92.19 146.14 92.15 146.12 92.11C146.1 92.07 146.07 92.03 146.03 92C145.99 91.97 145.95 91.95 145.9 91.94C145.85 91.94 145.8 91.94 145.76 91.95C145.71 91.97 145.67 91.99 145.63 92.03C145.59 92.07 145.54 92.11 145.49 92.15C145.45 92.19 145.4 92.23 145.36 92.28C145.32 92.32 145.28 92.36 145.23 92.41C145.19 92.45 145.15 92.5 145.12 92.55C145.04 92.64 144.97 92.74 144.9 92.85C144.83 92.95 144.76 93.05 144.7 93.16C144.63 93.26 144.57 93.37 144.51 93.48C144.46 93.59 144.4 93.7 144.35 93.81C144.21 94.11 144.09 94.42 143.95 94.72C143.91 94.81 143.87 94.9 143.81 95.03C143.77 94.98 143.74 94.92 143.72 94.86C143.7 94.8 143.69 94.74 143.68 94.68C143.67 94.61 143.68 94.55 143.69 94.49C143.69 94.42 143.71 94.36 143.74 94.31C143.81 94.11 143.89 93.91 143.97 93.72C144.06 93.53 144.14 93.34 144.24 93.15C144.33 92.96 144.42 92.77 144.52 92.59C144.62 92.4 144.73 92.22 144.84 92.04C144.89 91.97 144.93 91.9 144.98 91.82C145.03 91.75 145.08 91.68 145.13 91.61C145.19 91.54 145.24 91.47 145.29 91.4C145.34 91.34 145.4 91.27 145.46 91.2C145.48 91.17 145.51 91.14 145.54 91.12C145.57 91.09 145.6 91.06 145.63 91.04C145.66 91.01 145.69 90.99 145.72 90.97C145.75 90.94 145.79 90.92 145.82 90.9C145.86 90.87 145.9 90.85 145.95 90.84C145.99 90.83 146.04 90.82 146.09 90.83C146.14 90.83 146.18 90.85 146.22 90.87C146.27 90.89 146.3 90.92 146.34 90.96C146.37 90.99 146.39 91.02 146.42 91.05C146.45 91.09 146.48 91.12 146.5 91.15C146.53 91.19 146.55 91.23 146.57 91.26C146.6 91.3 146.62 91.34 146.64 91.38C146.67 91.44 146.69 91.5 146.72 91.56C146.74 91.63 146.76 91.69 146.78 91.76C146.8 91.83 146.81 91.89 146.82 91.96C146.84 92.03 146.84 92.1 146.85 92.17C146.9 92.71 146.96 93.27 147.01 93.81C147.02 93.89 147.03 93.96 147.05 94.04C147.07 94.11 147.09 94.18 147.13 94.25C147.16 94.32 147.2 94.39 147.24 94.45C147.28 94.51 147.33 94.57 147.39 94.62C147.47 94.71 147.58 94.78 147.69 94.83C147.8 94.88 147.93 94.9 148.05 94.9C148.17 94.89 148.3 94.86 148.41 94.81C148.52 94.76 148.62 94.68 148.7 94.59C148.75 94.54 148.8 94.48 148.83 94.42C148.87 94.36 148.9 94.29 148.92 94.22C148.95 94.15 148.96 94.08 148.97 94.01C148.97 93.94 148.97 93.86 148.96 93.79C148.94 93.64 148.91 93.5 148.87 93.35C148.84 93.21 148.8 93.07 148.75 92.93C148.71 92.79 148.65 92.65 148.6 92.51C148.54 92.37 148.48 92.24 148.41 92.1C148.39 92.06 148.36 92.02 148.33 91.98C148.3 91.94 148.27 91.91 148.25 91.87C148.22 91.83 148.19 91.79 148.15 91.75C148.12 91.72 148.09 91.68 148.06 91.65L148.06 91.64Z" />
					</g>
					<g id="Group_2">
						<path id="Path_17" fill-rule="evenodd" class="shp17" d="M32.64 131.67L30.48 127.36L28.54 127.36L28.54 131.67L26.99 131.67L26.99 121.44L30.96 121.44C31.37 121.4 31.78 121.46 32.17 121.59C32.56 121.73 32.92 121.94 33.22 122.22C33.52 122.51 33.75 122.85 33.91 123.23C34.07 123.61 34.15 124.02 34.14 124.43C34.15 124.74 34.11 125.04 34.02 125.34C33.92 125.63 33.78 125.91 33.6 126.15C33.41 126.4 33.19 126.61 32.93 126.78C32.68 126.95 32.39 127.07 32.09 127.15L34.45 131.68L32.64 131.67ZM28.54 122.83L28.54 126.04L30.84 126.04C31.29 126.08 31.73 125.92 32.06 125.62C32.39 125.31 32.58 124.89 32.58 124.44C32.58 123.99 32.39 123.56 32.06 123.25C31.73 122.95 31.29 122.8 30.84 122.83L28.54 122.83Z" />
						<path id="Path_18" class="shp18" d="M36.41 131.67L36.41 121.44L37.96 121.44L37.96 131.67L36.41 131.67Z" />
						<path id="Path_19" class="shp19" d="M43.99 127.46L43.99 131.67L42.44 131.67L42.44 127.46L39.37 121.44L41.07 121.44L43.22 125.94L45.36 121.44L47.06 121.44L43.99 127.46Z" />
						<path id="Path_20" fill-rule="evenodd" class="shp20" d="M53.77 131.67L53.07 129.62L49.03 129.62L48.33 131.67L46.66 131.67L50.42 121.44L51.67 121.44L55.42 131.67L53.77 131.67ZM51.08 123.75L49.48 128.3L52.62 128.3L51.08 123.75Z" />
						<path id="Path_21" fill-rule="evenodd" class="shp21" d="M63.12 130.71C62.94 130.87 62.75 131.02 62.54 131.14C62.33 131.27 62.12 131.37 61.89 131.46C61.66 131.54 61.43 131.6 61.19 131.64C60.95 131.67 60.71 131.69 60.47 131.67L56.88 131.67L56.88 121.44L60.47 121.44C60.71 121.43 60.95 121.44 61.19 121.48C61.43 121.51 61.66 121.57 61.89 121.66C62.11 121.74 62.33 121.84 62.54 121.97C62.74 122.09 62.94 122.24 63.11 122.4C64.22 123.51 64.15 125 64.15 126.48C64.15 127.97 64.22 129.6 63.12 130.71ZM62.05 123.52C61.94 123.41 61.82 123.3 61.68 123.21C61.55 123.12 61.41 123.04 61.26 122.99C61.11 122.93 60.95 122.88 60.79 122.86C60.64 122.83 60.47 122.82 60.31 122.83L58.43 122.83L58.43 130.28L60.31 130.28C60.47 130.29 60.64 130.28 60.79 130.26C60.95 130.23 61.11 130.19 61.26 130.13C61.41 130.07 61.55 129.99 61.69 129.9C61.82 129.81 61.94 129.71 62.05 129.59C62.58 129 62.6 127.89 62.6 126.49C62.6 125.09 62.58 124.11 62.05 123.52L62.05 123.52Z" />
						<path id="Path_22" class="shp22" d="M72.16 131.67L72.16 127.2L68 127.2L68 131.67L66.45 131.67L66.45 121.44L68 121.44L68 125.81L72.16 125.81L72.16 121.44L73.71 121.44L73.71 131.67L72.16 131.67Z" />
						<path id="Path_23" class="shp23" d="M28.54 137.21L28.54 140.33L32.8 140.33L32.8 141.73L28.54 141.73L28.54 146.05L26.99 146.05L26.99 135.82L33.53 135.82L33.53 137.21L28.54 137.21L28.54 137.21Z" />
						<path id="Path_24" fill-rule="evenodd" class="shp24" d="M41.05 146.05L38.9 141.74L36.96 141.74L36.96 146.05L35.4 146.05L35.4 135.82L39.37 135.82C39.78 135.78 40.19 135.84 40.58 135.97C40.97 136.11 41.33 136.32 41.63 136.6C41.93 136.89 42.16 137.23 42.32 137.61C42.48 137.99 42.56 138.4 42.55 138.81C42.56 139.12 42.52 139.42 42.43 139.72C42.34 140.01 42.2 140.29 42.01 140.53C41.83 140.78 41.6 140.99 41.35 141.16C41.09 141.33 40.81 141.45 40.51 141.53L42.87 146.05L41.05 146.05ZM39.25 137.21L36.95 137.21L36.95 140.42L39.25 140.42C39.7 140.46 40.14 140.31 40.47 140C40.8 139.7 40.99 139.27 40.99 138.82C40.99 138.37 40.8 137.94 40.47 137.63C40.14 137.33 39.7 137.18 39.25 137.21Z" />
						<path id="Path_25" fill-rule="evenodd" class="shp25" d="M50.83 145.05C50.47 145.4 50.05 145.67 49.59 145.86C49.13 146.04 48.63 146.14 48.14 146.14C47.64 146.14 47.14 146.04 46.68 145.86C46.22 145.67 45.8 145.4 45.44 145.05C44.43 144.04 44.45 142.91 44.45 140.94C44.45 138.97 44.43 137.83 45.44 136.83C45.8 136.48 46.22 136.2 46.68 136.02C47.14 135.83 47.64 135.73 48.14 135.73C48.63 135.73 49.13 135.83 49.59 136.02C50.05 136.2 50.47 136.48 50.83 136.83C51.84 137.83 51.81 138.97 51.81 140.94C51.81 142.91 51.84 144.04 50.83 145.05ZM49.65 137.76C49.45 137.56 49.21 137.4 48.95 137.29C48.69 137.18 48.41 137.13 48.13 137.13C47.84 137.13 47.56 137.18 47.3 137.29C47.04 137.4 46.8 137.56 46.6 137.76C46.1 138.31 46 138.88 46 140.94C46 142.99 46.1 143.57 46.6 144.11C46.8 144.31 47.04 144.47 47.3 144.58C47.56 144.69 47.84 144.75 48.13 144.75C48.41 144.75 48.69 144.69 48.95 144.58C49.21 144.47 49.45 144.31 49.65 144.11C50.15 143.57 50.25 142.99 50.25 140.94C50.25 138.88 50.16 138.31 49.65 137.76L49.65 137.76Z" />
						<path id="Path_26" class="shp26" d="M60.39 146.05L55.67 138.85L55.67 146.05L54.11 146.05L54.11 135.82L55.53 135.82L60.26 143.01L60.26 135.82L61.81 135.82L61.81 146.05L60.39 146.05Z" />
						<path id="Path_27" class="shp27" d="M67.96 137.22L67.96 146.06L66.41 146.06L66.41 137.22L63.59 137.22L63.59 135.82L70.78 135.82L70.78 137.22L67.96 137.22Z" />
					</g>
				</g>
			</g>
		</g>
	</g>
</svg>